<?xml version="1.0" encoding="utf-8"?>
<!-- Generator: Adobe Illustrator 16.0.0, SVG Export Plug-In . SVG Version: 6.00 Build 0)  -->
<!DOCTYPE svg PUBLIC "-//W3C//DTD SVG 1.1//EN" "http://www.w3.org/Graphics/SVG/1.1/DTD/svg11.dtd">
<svg version="1.1" id="Layer_1" xmlns="http://www.w3.org/2000/svg" xmlns:xlink="http://www.w3.org/1999/xlink" x="0px" y="0px"
	 width="956.997px" height="334.128px" viewBox="0 0 956.997 334.128" enable-background="new 0 0 956.997 334.128"
	 xml:space="preserve">
<g>
	<path fill-rule="evenodd" clip-rule="evenodd" fill="#FFFFFF" d="M254.823,23.296c7.074-4.584,14.584-8.123,22.521-10.933
		c8.238-2.917,16.492-5.56,25.154-6.85c8.702-1.295,17.13-2.512,25.876-1.044c4.139,0.694,8.42,1.086,12.504,2.05
		c1.951,0.46,3.883,0.999,5.83,1.476c1.614,0.395,3.764,1.336,5.159-0.043c-3.396-2.389-7.874-3.409-11.878-4.495
		c-4.582-1.243-9.291-1.915-13.98-2.606c-9.316-1.374-18.642-0.878-27.964,0.03c-9.52,0.927-18.681,3.066-27.754,6.108
		c-8.724,2.925-16.699,8.43-24.091,13.787c1.286,1.11,2.583,2.208,3.889,3.296c1.002,0.836,1.164,1.571,2.359,0.779
		C253.237,24.33,254.029,23.811,254.823,23.296C260.667,19.509,253.764,23.983,254.823,23.296z"/>
	<path fill-rule="evenodd" clip-rule="evenodd" fill="#FFFFFF" d="M112.639,211.756c-2.168,3.276-3.75,6.954-5.78,10.332
		c-2.347,3.905-4.912,7.681-7.37,11.517c-2.261,3.528-4.341,7.321-6.885,10.652c-1.937,2.535-7.025-0.892-9.247-1.751
		c-8.152-3.153-16.805-4.93-25.505-5.727c-8.468-0.775-17.093,1.156-25.151,3.552c-7.808,2.321-16.25,6.022-22.021,12.027
		c-4.988,5.189-8.566,11.58-10.006,18.656c-2.861,14.057,3.298,33.518,20.152,34.409c17.384,0.92,33.256-8.184,45.882-19.355
		c6.069-5.371,11.631-11.306,16.635-17.68c2.551-3.248,4.924-6.631,7.329-9.988c1.179-1.646,2.263-3.558,3.659-5.028
		c1.23-1.295,3.499,0.539,4.689,1.14c7.904,3.979,15.303,9.185,22.841,13.813c7.135,4.382,14.16,8.514,21.584,12.383
		c15.789,8.229,32.197,15.758,49.64,19.729c8.611,1.961,17.523,3.782,26.379,3.858c8.958,0.078,17.698-0.956,26.375-3.18
		c7.547-1.935,16.205-4.043,22.827-8.303c3.518-2.261,7.445-3.77,11.136-5.705c3.874-2.031,7.392-4.715,10.755-7.491
		c6.505-5.369,12.192-11.072,17.477-17.65c5.071-6.312,10.116-13.599,13.062-21.161c0.789-2.024,1.517-4.071,2.233-6.123
		c0.526-1.505,0.877-3.311,2.315-4.236c1.542-0.993,3.715-1.275,5.455-1.784c2.399-0.702,4.796-1.41,7.189-2.13
		c8.511-2.561,17.015-5.191,25.098-8.927c2.211-1.022,4.377-2.121,6.626-3.061c0.974-0.406,1.95-0.807,2.918-1.225
		c0.788,0.927,1.668,1.772,2.615,2.536c3.281,2.645,7.232,4.229,11.008,6.014c-4.266,6.57-8.514,12.957-10.058,20.781
		c-1.445,7.324-0.341,15.565,2.655,22.402c6.503,14.841,24.936,19.202,39.697,18.084c7.854-0.595,16.146-3.851,22.882-7.861
		c6.729-4.007,12.753-9.329,17.412-15.629c4.807-6.499,8.791-13.815,11.627-21.384c1.381-3.686,2.625-7.544,3.156-11.455
		c0.61-4.501-0.396-8.965-1.049-13.405c-0.191-1.303-0.275-2.597-0.374-3.909c1.017-0.655,2.028-1.318,3.046-1.973
		c2.579-1.657,5.219-3.218,7.842-4.804c5.434-3.287,10.605-6.921,15.744-10.648c9.988-7.247,19.619-14.873,28.844-23.074
		c9.215-8.193,18.127-16.731,27.115-25.171c9.379-8.808,18.068-18.428,27.705-26.945c-0.266,1.814-1.873,3.388-2.916,4.801
		c-1.287,1.747-2.58,3.49-3.865,5.239c-2.732,3.719-5.41,7.475-7.945,11.333c-4.658,7.087-9.363,14.167-13.381,21.64
		c-3.893,7.238-8.602,14.587-11.154,22.434c-0.523,1.607-1.393,2.867-2.094,4.386c-0.736,1.593-0.705,3.262-1.211,4.902
		c-1.301,4.217-2.578,8.479-3.588,12.775c-1.977,8.42-1.75,17.182-1.547,25.772c0.205,8.648,2.402,17.352,4.945,25.58
		c2.576,8.333,4.902,16.437,9.105,24.143c1.922,3.521,4.047,6.931,6.377,10.194c2.473,3.459,5.238,6.246,8.141,9.284
		c11.127,11.645,25.17,22.859,40.484,28.444c7.818,2.852,16.621,4.932,24.889,5.917c8.701,1.037,18.281-0.094,26.904-1.435
		c8.516-1.324,17.301-3.034,25.33-6.199c8.387-3.304,16.592-7.199,24.668-11.191c7.691-3.803,15.225-7.8,22.34-12.613
		c3.209-2.17,5.775-3.702,9.697-4.027c4.637-0.384,9.252-1.276,13.857-1.931c34.715-4.936,68.941-14.322,101.088-28.468
		c7.871-3.463,15.629-7.276,23.652-10.36c8.27-3.18,15.883-7.897,24.135-11.133c4.041-1.585,8.094-3.143,12.121-4.765
		c1.729-0.696,3.447-1.397,5.201-2.03c1.879-0.678,2.887-1.898,4.508-2.872c3.264-1.961,7.242-3.011,10.635-4.86
		c3.705-2.021,7.713-3.621,11.217-5.989c3.182-2.152,6.105-4.778,9.217-7.053c1.104-0.808,3.469-2.142,3.385-3.767
		c-0.119-2.311-3.094-1.826-4.393-1.078c-7.254,4.176-14.529,8.297-21.846,12.407c-15.139,8.507-31.375,14.733-47.264,21.642
		c-8.24,3.583-16.338,7.503-24.48,11.297c-7.902,3.681-16.049,6.698-24.104,10.023c-7.971,3.289-15.949,6.941-24.371,8.929
		c-8.297,1.955-16.461,4.421-24.785,6.291c-6.611,1.484-13.346,2.254-20.045,3.22c-3.559,0.513-7.115,1.056-10.693,1.411
		c-1.947,0.194-6.975,1.645-8.4-0.18c12.992-11.456,25.896-22.661,37.174-35.895c5.744-6.742,11.322-13.645,16.773-20.626
		c5.309-6.799,10-13.854,14.838-20.977c9.678-14.253,16.438-31.036,21.033-47.584c2.357-8.489,4.898-16.73,5.115-25.617
		c0.203-8.324-0.564-17.674-3.174-25.615c-2.572-7.838-7-14.137-12.039-20.557c-4.973-6.332-10.668-11.847-17.494-16.18
		c-14.549-9.227-32.834-9.58-49.494-8.024c-35.205,3.287-69.648,17.317-98.029,38.257c-6.951,5.128-13.389,10.728-19.686,16.626
		c-2.898,2.716-6.023,5.348-8.57,8.4c-2.84,3.405-5.506,6.965-8.234,10.459c-2.486,3.183-4.383,6.919-6.436,10.391
		c-2.295,3.88-4.518,7.808-6.436,11.89c-3.656,7.787-7.037,15.828-9.109,24.19c-2.152,8.693-3.939,17.08-3.898,26.093
		c0.039,8.809-0.416,9.271,0.379,18.002c0.742,8.153,6.609,23.886,11.197,30.529c4.648,6.73,8.975,12.707,15.52,17.776
		c12.785,9.901,29.588,16.761,45.516,19.284c9.072,1.437,18.02,1.686,27.189,1.521c4.398-0.078,8.738-0.296,13.111-0.78
		c1.234-0.136,4.768-1.067,5.447,0.138c-1.76,1.29-3.391,2.775-5.311,3.835c-7.578,4.18-15.664,7.053-23.57,10.51
		c-3.781,1.652-7.584,3.077-11.518,4.318c-4.236,1.337-8.246,3.018-12.66,3.739c-8.645,1.413-17.924,3.39-26.672,3.379
		c-8.531-0.012-16.979-1.465-25.25-3.667c-15.029-4.001-30.578-14.506-42.219-25.996c-6.004-5.926-10.842-12.537-15.18-19.761
		c-2.105-3.504-3.832-7.197-5.525-10.913c-1.891-4.148-4.023-8.266-5.268-12.667c-2.328-8.231-2.988-17.552-2.879-26.077
		c0.111-8.65,0.484-17.73,2.633-26.142c4.236-16.592,11.826-32.146,20.533-46.807c9.6-16.164,20.848-31.499,32.635-46.127
		c2.604-3.232,4.648-6.845,7.268-10.056c2.695-3.306,5.82-6.219,8.953-9.101c5.32-4.893,10.971-9.396,16.293-14.284
		c-1.471-1.026-0.227-4.56-0.172-5.984c0.041-1.073-0.053-2.492-1.229-1.417c-1.641,1.501-3.273,3.008-4.906,4.517
		c-6.02,5.562-12.129,11.007-18.24,16.465c-2.973,2.655-5.623,5.414-8.258,8.392c-2.865,3.235-6.379,5.923-9.568,8.824
		c-6.727,6.116-13.182,12.559-19.621,18.974c-12.787,12.735-26.139,24.838-39.746,36.7c-13.172,11.485-26.422,23.406-40.654,33.567
		c-3.205,2.289-6.592,4.312-10.046,6.2c-2.017,1.103-6.343,4.925-7.771,1.896c-2.994-6.354-9.178-13.315-16.804-13.139
		c-6.556,0.152-15.561,3.452-15.71,11.134c-0.148,7.591,6.835,12.187,13.514,13.28c3.882,0.637,7.587,0.028,11.422-0.58
		c0.94-0.148,1.88-0.298,2.819-0.446c1.462-0.232,1.202,0.479,1.563,1.745c0.62,2.179,1.014,4.432,0.992,6.703
		c-0.034,3.667-0.947,7.677-1.79,11.243c-0.895,3.786-2.288,7.445-4.104,10.884c-7.327,13.873-19.111,27.038-34.244,30.894
		c-8.018,2.042-18.479,2.851-26.446,0.011c-6.833-2.437-14.624-9.595-17.297-16.49c-1.284-3.313-1.558-9.056-1.212-12.494
		c0.407-4.051,1.297-7.801,3.151-11.45c1.666-3.278,3.836-6.269,6.12-9.139c2.537-3.188,5.958-2.317,9.563-2.363
		c7.122-0.091,15.88-1.997,21.263-7.019c2.136-1.992,2.648-5.163,2.23-7.974c-0.539-3.617-3.71-4.86-6.965-5.108
		c-3.831-0.291-7.659,0.488-11.109,2.165c-3.818,1.855-6.457,4.06-9.526,6.912c-1.051,0.977-2.45,2.562-3.905,2.878
		c-1.556,0.337-3.687-0.357-5.143-0.875c-1.361-0.485-2.604-1.243-3.78-2.075c-1.067-0.755-3.3-2.32-1.789-3.217
		c14.891-8.836,29.393-18.259,43.171-28.745c6.742-5.13,12.844-10.688,18.392-17.104c4.91-5.678,10.928-13.486,9.968-21.516
		c-0.445-3.723-1.483-7.006-3.452-10.222c-1.961-3.204-5.242-5.119-8.597-6.724c-7.677-3.673-15.98-2.503-23.746,0.256
		c-15.554,5.527-28.837,17.884-38.161,31.274c-2.237,3.214-4.605,6.413-6.36,9.927c-1.941,3.885-3.263,8.261-4.661,12.369
		c-2.424,7.122-2.132,15.209-0.939,22.544c0.24,1.479,2.303,5.026,1.288,6.173c-1.22,1.378-3.125,2.229-5.083,3.083
		c-4.135,1.805-7.902,3.646-11.938,5.666c-4.161,2.084-8.513,3.671-12.872,5.28c-4.091,1.511-7.881,2.958-12.203,3.479
		c1.727-8.343,2.489-16.788,3.12-25.285c0.638-8.593-0.261-17.196-1.131-25.747c-0.896-8.806-2.893-17.492-5.22-26.023
		c-2.291-8.395-6.363-15.998-10.328-23.696c-7.77-15.088-19.67-27.478-31.876-39.087c-12.563-11.949-27.98-21.147-42.798-29.956
		c-4.023-2.392-8.299-4.311-12.231-6.852c7.761-8.199,15.723-15.922,25.145-22.211c-1.574-1.298-3.138-2.607-4.688-3.935
		c-1.067-0.914-1.005-0.511-2.015,0.234c-0.829,0.612-2.788,2.076-3.631,2.67c-4.045,2.849-6.13,4.046-9.584,6.879
		c-3.985,3.269-6.931,5.494-9.917,8.333c-1.254,1.193-4.348,3.99-6.125,4c-1.673,0.01-1.854-0.497-3.698-1.068
		c-8.244-2.557-16.594-5.096-24.998-7.075c-8.679-2.044-17.412-2.575-26.303-2.593c-17.021-0.036-33.862,3.983-48.985,11.754
		C104.201,48.439,96.791,52,90.073,57.203c-6.609,5.119-12.389,10.446-17.81,16.794C63.415,84.36,56.732,96.7,53.056,109.834
		c-3.789,13.538-3.949,28.788,1.218,42.003c5.301,13.557,13.201,24.814,23.973,34.539c5.235,4.727,10.41,9.406,16.274,13.358
		c6.027,4.063,12.469,7.305,18.703,11.003 M446.08,206.76c-2.441-0.793-4.083-3.731-3.852-6.255
		c0.277-3.013,3.962-5.215,6.673-5.565c3.409-0.44,5.888,1.09,8.205,3.401c2.709,2.704,5.129,5.196,6.712,8.671
		C457.99,208.939,451.875,208.641,446.08,206.76C443.649,205.971,451.791,208.613,446.08,206.76z M405.498,212.701
		c2.492-1.689,5.102-3.322,8.05-4.073c1.151-0.294,9.29-0.919,7.181,2.048c-1.764,2.481-5.734,3.105-8.491,3.505
		c-2.752,0.398-7.047,1.588-9.724,0.592C403.486,214.052,404.496,213.381,405.498,212.701
		C408.264,210.826,404.671,213.262,405.498,212.701z M81.667,259.563c-10.054,13.09-21.448,27.35-36.448,34.981
		c-7.036,3.579-16.947,5.104-24.771,3.96c-3.177-0.465-5.859-2.343-7.569-5.034c-1.99-3.132-4.523-7.351-4.845-11.108
		c-1.346-15.691,10.197-26.446,23.235-33.024c7.34-3.703,15.28-6.34,23.539-6.699c8.766-0.381,17.392,1.533,25.667,4.273
		c2.838,0.939,5.647,1.824,8.34,3.116C86.435,253.209,84.087,256.413,81.667,259.563C79.185,262.795,83.992,256.537,81.667,259.563z
		 M109.612,202.061c-14.188-9.465-27.727-19.164-38.104-32.915c-4.951-6.561-8.778-13.877-11.665-21.563
		c-2.989-7.959-5.122-15.998-4.311-24.558c0.813-8.586,3.286-16.553,7.186-24.217c3.764-7.397,7.863-14.647,13.343-20.924
		c5.579-6.391,11.652-11.979,18.55-16.896c7-4.989,13.816-9.807,21.819-13.067c15.555-6.337,31.962-9.563,48.813-8.689
		c8.348,0.433,16.848,2.069,25.07,3.531c8.077,1.436,14.165,1.98,21.595,5.546c-5.133,6.798-7.982,10.15-13.333,17.417
		c-4.847,6.581-9.789,13.451-14.125,20.375c-1.106,1.766-0.708,1.25-3.375,5.25c-0.231,0.347-2.326,3.868-2.625,4.375
		c-1.078,1.829-2.555,3.916-3.625,5.75c-4.326,7.416-8.742,15.867-13.125,23.25c-8.653,14.576-17.095,29.713-25.424,44.479
		c-4.105,7.277-8.076,14.629-11.965,22.024c-1.933,3.676-3.748,7.464-5.965,10.978c-0.498,0.789-1.01,1.569-1.513,2.355
		c-0.75,1.173-1.162,0.669-2.352,0.196C112.749,204.07,111.158,203.091,109.612,202.061
		C105.496,199.314,111.645,203.416,109.612,202.061z M316.798,234.923c-6.417,15.435-17.657,29.033-30.162,39.986
		c-12.701,11.124-29.404,16.161-45.566,19.748c-8.805,1.953-17.696,2.123-26.677,1.751c-8.725-0.361-17.335-1.286-25.828-3.38
		c-8.44-2.081-17.277-6.497-25.406-9.553c-3.682-1.383-8.168-3.888-11.667-5.667c-3.954-2.011-9.41-4.432-13.333-6.5
		c-7.629-4.021-13.458-7.598-20.667-12.333c-7.018-4.61-11.587-7.178-18.681-11.653c4.627-7.564,8.606-13.301,13.264-20.847
		c2.233-3.618,4.508-7.718,6.875-11.25c0.84-1.254,1.903-0.806,3.166-0.341c0.825,0.304,1.849,0.996,2.616,1.42
		c2.081,1.151,2.137,1.044,4.305,2.02c15.78,7.102,32.452,13.166,49.238,17.385c8.762,2.202,17.676,3.812,26.589,5.264
		c4.132,0.674,8.286,1.208,12.455,1.598c4.699,0.44,9.31,0.169,14.013,0.222c15.16,0.171,30.141-1.224,45.18-3.006
		c7.444-0.883,14.833-2.035,22.195-3.443c3.792-0.726,7.609-1.4,11.374-2.261c1.636-0.374,3.26-0.799,4.887-1.214
		c0.842-0.215,2.017-1.058,2.281,0.207C317.387,233.739,317.042,234.338,316.798,234.923
		C314.776,239.787,317.117,234.157,316.798,234.923z M321.47,219.146c-0.521,1.818-0.457,3.765-0.972,5.56
		c-0.42,1.465-2.135,1.668-3.373,2.095c-1.921,0.661-3.667,0.711-5.629,1.023c-2.009,0.32-3.958,1.022-5.975,1.354
		c-3.594,0.592-7.17,1.39-10.763,1.616c-4.312,0.266-8.457,1.907-12.881,2.083c-3.77,0.155-7.708,1.739-11.5,2.227
		c-4.452,0.573-8.938,0.87-13.409,1.25c-8.897,0.757-17.833,0.826-26.759,0.794c-9.027-0.032-17.929-0.824-26.847-2.209
		c-8.702-1.352-17.538-2.703-26.04-5.036c-16.888-4.633-33.155-9.832-48.989-17.413c-1.866-0.894-1.167-0.568-3.027-1.475
		c-1.972-0.967-1.044-2.158-0.23-3.665c2.149-3.982,3.414-6.427,5.625-10.375c4.438-7.925,8.768-16.67,13.375-24.5
		c4.547-7.728,8.479-15.66,13.25-23.25c4.65-7.396,6.707-11.742,11.375-19.125c9.542-15.09,20.04-34.168,31.279-50.484
		c2.282-3.313,4.597-6.521,6.89-9.818c2.368-3.405,4.532-6.155,7.289-9.239c1.276-1.428,2.56-3.153,3.833-4.583
		c0.839-0.943,2.157-2.983,3.417-3.417c1.138-0.391,3.023,1.127,3.971,1.592c2.16,1.059,4.304,2.149,6.426,3.284
		c7.135,3.816,14.092,8.139,20.98,12.386c6.757,4.167,12.857,9.395,19.226,14.121c6.538,4.851,12.941,10.515,18.195,16.738
		c5.32,6.301,10.849,12.447,15.229,19.456c8.825,14.118,13.177,30.822,15.839,47.128c1.409,8.63,2.2,17.075,2.526,25.813
		C324.132,201.898,323.921,210.597,321.47,219.146C321.011,220.746,323.419,212.348,321.47,219.146z M373.701,181.726
		c1.356-8.235,3.576-12.648,8.125-19.584c4.833-7.366,8-13,16.333-19.832c6.38-5.232,13.552-9.541,21.333-12.5
		c7.128-2.71,15.167-3.667,23.139,1.793c2.553,1.749,4.244,4.662,4.683,7.742c0.582,4.084-1.447,8.346-3.572,11.631
		c-4.651,7.192-10.234,13.496-16.583,19.166c-6.75,6.029-13.543,10.91-20.083,15.251c-7.027,4.664-12.978,8.813-20.5,12.666
		c-3.132,1.604-7.349,4.268-10.5,5.834c-2.221-4.837-3.375-7.834-3.25-15.167C372.844,187.66,372.857,186.847,373.701,181.726z
		 M735.57,287.911c-2.676,2.305-4.201,3.733-7.902,3.879c-4.656,0.183-9.307,0.491-13.961,0.746
		c-8.449,0.462-17.197,0.08-25.66-0.332c-8.902-0.435-17.85-0.875-26.447-3.396c-8.104-2.374-15.508-6.23-22.744-10.516
		c-13.873-8.219-24.418-22.781-29.74-37.904c-2.773-7.885-2.604-16.317-2.428-24.371c0.195-8.875,1.082-17.567,2.965-26.254
		c3.705-17.085,12.73-32.149,22.691-46.237c9.572-13.54,22.518-25.006,36.252-34.205c14.514-9.719,29.766-17.452,46.104-23.606
		c8.197-3.088,16.66-5.389,25.131-7.586c8.473-2.198,16.629-4.003,25.383-4.621c8.617-0.608,17.025-1.115,25.453,1.271
		c7.543,2.136,15.01,6.297,21.352,10.866c6.744,4.861,11.908,11.922,16.213,18.958c4.588,7.501,6.74,15.406,7.896,24.083
		c1.166,8.739-1.371,17.246-3.627,25.605c-2.225,8.238-4.898,16.314-7.947,24.284c-3.045,7.962-7.744,15.485-11.885,22.914
		c-3.953,7.091-7.92,15.147-13.477,21.14c-4.805,5.181-8.609,11.298-13.287,16.622c-5.162,5.876-10.457,11.635-15.859,17.292
		C759.307,267.787,747.322,277.766,735.57,287.911C735.027,288.379,742.025,282.338,735.57,287.911z"/>
	<path fill-rule="evenodd" clip-rule="evenodd" fill="#FFFFFF" d="M631.943,72.755c6.021-5.327,12.445-9.738,19.508-13.655
		c6.008-3.332,11.789-7.169,18.273-9.463c3.172-1.122,7.967-3.409,12.045-4.663c3.975-1.222,5.639-1.9,9.473-2.749
		c4.539-1.004,5.992-1.487,9.959-2.125c4.822-0.776,6.449-1.207,11.875-1.875c3.355-0.413,5.604-0.453,8.186-0.694
		c2.84-0.265,5.232-0.479,8.041-0.869c0.469-0.064,0.947-0.239,0.965-0.782c0.031-1.004-1.361-1.146-2.262-1.294
		c-3.066-0.502-5.324-0.405-8.43-0.245c-3.42,0.176-5.697,0.113-8.875,0.508c-4.631,0.576-9.686,1.423-14.25,2.25
		c-11.43,2.071-16.793,3.632-24.834,6.625c-10.191,3.794-15.834,6.58-26.416,12.375c-7.916,4.335-16.568,10.558-23,16.875
		c1.396,0.881,3.1,1.054,4.668,1.446c0.781,0.195,1.561,0.444,2.256,0.861C630.059,74.434,630.998,73.591,631.943,72.755
		C637.16,68.141,630.998,73.592,631.943,72.755z"/>
</g>
</svg>
